<?xml version="1.0" encoding="UTF-8"?>
<svg width="50px" height="43px" viewBox="0 0 50 43" version="1.1" xmlns="http://www.w3.org/2000/svg" xmlns:xlink="http://www.w3.org/1999/xlink">
    <!-- Generator: Sketch 43.2 (39069) - http://www.bohemiancoding.com/sketch -->
    <title>Key</title>
    <desc>Created with Sketch.</desc>
    <defs></defs>
    <g id="Page-1" stroke="none" stroke-width="1" fill="none" fill-rule="evenodd">
        <g id="iPad-Pro-Portrait" transform="translate(-35.000000, -541.000000)" stroke="#000000" fill="#FEFEFE">
            <g id="Key" transform="translate(32.000000, 536.000000)">
                <g id="Key3" transform="translate(27.567125, 26.249137) rotate(130.000000) translate(-27.567125, -26.249137) translate(18.067125, -1.750863)">
                    <path d="M8.58607904,4.86873591 C8.54753503,4.84586238 8.50809396,4.8245968 8.46777046,4.80503508 C6.99476846,4.09045277 5.94849338,3.73935176 4.56212311,4.19806178 C3.17575284,4.6567718 2.62170352,6.95583746 2.62170352,6.95583746 C2.62170352,6.95583746 2.83578136,8.09431816 3.33129618,8.78358612 C3.82681101,9.47285409 4.66339034,9.84260358 5.38538711,9.92793171 C6.87900548,10.1044528 7.04241855,9.69133698 8.58607904,9.1151039 C10.1297395,9.69133698 10.2931526,10.1044528 11.786771,9.92793171 C12.5087677,9.84260358 13.3453471,9.47285409 13.8408619,8.78358612 C14.3363767,8.09431816 14.5504546,6.95583746 14.5504546,6.95583746 C14.5504546,6.95583746 13.9964052,4.6567718 12.610035,4.19806178 C11.2236647,3.73935176 10.1773896,4.09045277 8.70438762,4.80503508 C8.66406412,4.8245968 8.62462305,4.84586238 8.58607904,4.86873591 Z M0.0111100579,6.21460465 C0.291970289,0.235608744 8.09128225,0.0641179655 8.54636799,0.00385925651 C9.00145373,-0.0563994525 11.6934363,0.608943785 11.6934363,0.608943785 C11.6934363,0.608943785 16.3526566,1.52640024 17.0137151,5.83960465 C17.6747735,10.1528091 13.5231242,12.7074966 13.5231242,12.7074966 C13.5231242,12.7074966 11.4534762,13.2192153 10.6185763,14.0250555 C9.78367636,14.8308956 9.68862681,15.920035 9.68862681,15.920035 C9.68862681,15.920035 9.43138495,36.0748121 9.57962385,37.6664489 C9.72786275,39.2580857 10.1607448,38.1668144 10.4299124,39.3271004 C10.4799736,39.5428965 10.4152006,39.2156701 10.4299124,39.9466573 C10.4446242,40.6776445 10.2861539,41.1672643 10.2861539,41.1672643 C10.2861539,41.1672643 10.0673799,41.29854 9.78875993,41.2756148 C9.51013992,41.2526895 9.45807563,41.5826716 9.45807563,41.5826716 C9.45807563,41.5826716 9.40392619,42.1793844 9.45807563,42.4884904 C9.51222507,42.7975964 9.71480544,42.8810365 9.71480544,42.8810365 C9.71480544,42.8810365 13.0988896,43.0284494 13.5457825,42.9468024 C13.9926754,42.8651554 13.9842906,43.2034622 13.9842906,43.2034622 L13.9409582,44.164912 L16.1051438,44.164912 C16.1051438,44.164912 16.087926,43.5721226 16.1107763,43.2410519 C16.1336266,42.9099812 16.4004695,42.966974 16.4004695,42.966974 C16.4004695,42.966974 17.8896431,43.0065488 18.0621405,43.0284494 C18.2346378,43.05035 18.3387763,43.2587901 18.3387763,43.2587901 C18.3387763,43.2587901 18.3043408,45.6469177 18.246543,45.8250042 C18.1887452,46.0030908 18.0698213,45.9138874 18.0698213,45.9138874 C18.0698213,45.9138874 17.9522414,45.9549991 17.5529693,45.9343792 C17.1536972,45.9137594 17.2599478,46.1971866 17.2599478,46.1971866 C17.2599478,46.1971866 17.2557234,47.5887722 17.172387,47.9395022 C17.0890507,48.2902322 17.4529913,48.2123634 17.4529913,48.2123634 C17.4529913,48.2123634 17.5568097,48.2115309 17.8896431,48.2964438 C18.2224766,48.3813567 18.3043408,48.657868 18.3043408,48.657868 C18.3043408,48.657868 18.2585122,50.7888874 18.1573821,51.4432163 C18.0562519,52.0975452 17.7567658,52.0415129 17.7567658,52.0415129 C17.7567658,52.0415129 16.3845319,52.0596994 16.2046738,52.0144894 C16.0248157,51.9692793 15.9471119,51.6784238 15.9471119,51.6784238 C15.9471119,51.6784238 15.8251796,51.2502732 15.8948826,50.81764 C15.9645856,50.3850068 15.5786268,50.2631446 15.5786268,50.2631446 C15.5786268,50.2631446 13.8057766,50.2870944 13.7215442,50.2589822 C13.6373117,50.23087 13.6507531,50.5269125 13.6507531,50.5269125 L13.5932753,51.5408726 C13.5932753,51.5408726 13.5932753,51.7206881 13.4278827,51.8672686 C13.26249,52.013849 13.2400238,52.0347891 13.2400238,52.0347891 C13.2400238,52.0347891 9.79519752,51.9972635 9.57962385,52.0596994 C9.36405018,52.1221354 9.40392619,52.4093408 9.40392619,52.4093408 L9.2995957,55.1516564 C9.2995957,55.1516564 8.5394553,55.7124914 7.26188688,55.9630037 C5.98431846,56.213516 5.08227579,54.9367486 5.08227579,54.9367486 L5.39245097,41.7350324 C5.39245097,41.7350324 5.53539139,41.4614416 5.49850963,41.37316 C5.46162788,41.2848784 5.48464346,41.0969017 5.24126777,41.0534238 C4.42505773,40.9076118 4.6236697,40.2676272 4.6236697,40.2676272 L4.67922728,39.5035391 C4.67922728,39.5035391 4.59217853,38.8501067 5.03075061,38.6293075 C5.4693227,38.4085083 5.49850963,37.6664489 5.49850963,37.6664489 C5.49850963,37.6664489 6.2294631,19.9692153 6.40919317,16.9474428 C6.58892323,13.9256702 4.86766222,13.2192153 4.86766222,13.2192153 C4.86766222,13.2192153 -0.269750173,12.1936005 0.0111100579,6.21460465 Z" id="Combined-Shape"></path>
                </g>
            </g>
        </g>
    </g>
</svg>