<?xml version="1.0" encoding="UTF-8"?>
<svg width="53px" height="43px" viewBox="0 0 53 43" version="1.1" xmlns="http://www.w3.org/2000/svg" xmlns:xlink="http://www.w3.org/1999/xlink">
    <!-- Generator: Sketch 43.2 (39069) - http://www.bohemiancoding.com/sketch -->
    <title>Two Keys</title>
    <desc>Created with Sketch.</desc>
    <defs></defs>
    <g id="Page-1" stroke="none" stroke-width="1" fill="none" fill-rule="evenodd">
        <g id="iPhone-7" transform="translate(-252.000000, -468.000000)" stroke="#000000" fill="#FEFEFE">
            <g id="Two-Keys" transform="translate(248.000000, 463.000000)">
                <g id="Key2" transform="translate(32.222067, 25.931858) scale(-1, 1) rotate(127.000000) translate(-32.222067, -25.931858) translate(22.683606, -2.663886)">
                    <path d="M8.66496807,4.973475 C8.62642406,4.95060147 8.58698299,4.92933588 8.54665949,4.90977416 C7.07365749,4.19519185 6.02738241,3.84409084 4.64101214,4.30280087 C3.25464187,4.76151089 2.70059255,7.06057655 2.70059255,7.06057655 C2.70059255,7.06057655 2.91467039,8.19905724 3.41018521,8.88832521 C3.90570004,9.57759317 4.74227937,9.94734266 5.46427613,10.0326708 C6.95789451,10.2091919 7.12130758,9.79607606 8.66496807,9.21984299 C10.2086286,9.79607606 10.3720416,10.2091919 11.86566,10.0326708 C12.5876568,9.94734266 13.4242361,9.57759317 13.9197509,8.88832521 C14.4152658,8.19905724 14.6293436,7.06057655 14.6293436,7.06057655 C14.6293436,7.06057655 14.0752943,4.76151089 12.688924,4.30280087 C11.3025537,3.84409084 10.2562787,4.19519185 8.78327665,4.90977416 C8.74295315,4.92933588 8.70351208,4.95060147 8.66496807,4.973475 Z M0.0899990863,6.31934373 C0.370859317,0.340347828 8.17017127,0.168857049 8.62525702,0.10859834 C9.08034276,0.0483396308 11.7723253,0.713682868 11.7723253,0.713682868 C11.7723253,0.713682868 16.4315457,1.63113932 17.0926041,5.94434373 C17.7536626,10.2575481 13.6020133,12.8122356 13.6020133,12.8122356 C13.6020133,12.8122356 11.5323652,13.3239544 10.6974653,14.1297945 C9.86256539,14.9356347 9.76751583,16.0247741 9.76751583,16.0247741 C9.76751583,16.0247741 9.51027398,36.1795512 9.65851288,37.771188 C9.80675178,39.3628248 10.2396338,38.2715535 10.5088014,39.4318395 C10.5588626,39.6476355 10.4940896,39.3204091 10.5088014,40.0513964 C10.5235132,40.7823836 10.365043,41.2720034 10.365043,41.2720034 C10.365043,41.2720034 10.146269,41.403279 9.86764896,41.3803538 C9.58902895,41.3574286 9.53696466,41.6874107 9.53696466,41.6874107 C9.53696466,41.6874107 9.48281522,42.2841234 9.53696466,42.5932295 C9.5911141,42.9023355 9.79369447,42.9857756 9.79369447,42.9857756 C9.79369447,42.9857756 13.1777786,43.1331885 13.6246715,43.0515415 C14.0715645,42.9698944 14.0631796,43.3082013 14.0631796,43.3082013 L14.0198473,44.2696511 L16.1840328,44.2696511 C16.1840328,44.2696511 16.1668151,43.6768617 16.1896654,43.345791 C16.2125157,43.0147203 16.4793585,43.0717131 16.4793585,43.0717131 C16.4793585,43.0717131 17.9685322,43.1112879 18.1410295,43.1331885 C18.3135268,43.1550891 18.4176653,43.3635292 18.4176653,43.3635292 C18.4176653,43.3635292 18.3832299,45.7516567 18.325432,45.9297433 C18.2676342,46.1078299 18.1487103,46.0186265 18.1487103,46.0186265 C18.1487103,46.0186265 18.0311305,46.0597382 17.6318583,46.0391183 C17.2325862,46.0184984 17.3388369,46.3019257 17.3388369,46.3019257 C17.3388369,46.3019257 17.3346124,47.6935112 17.2512761,48.0442413 C17.1679397,48.3949713 17.5318803,48.3171024 17.5318803,48.3171024 C17.5318803,48.3171024 17.6356987,48.31627 17.9685322,48.4011829 C18.3013656,48.4860958 18.3832299,48.762607 18.3832299,48.762607 C18.3832299,48.762607 18.3374012,50.8936265 18.2362711,51.5479554 C18.1351409,52.2022843 17.8356548,52.146252 17.8356548,52.146252 C17.8356548,52.146252 16.4634209,52.1644385 16.2835628,52.1192285 C16.1037047,52.0740184 16.0260009,51.7831629 16.0260009,51.7831629 C16.0260009,51.7831629 15.9040687,51.3550123 15.9737717,50.9223791 C16.0434747,50.4897459 15.6575159,50.3678837 15.6575159,50.3678837 C15.6575159,50.3678837 13.8846657,50.3918335 13.8004332,50.3637213 C13.7162007,50.3356091 13.7296421,50.6316516 13.7296421,50.6316516 L13.6721643,51.6456117 C13.6721643,51.6456117 13.6721643,51.8254272 13.5067717,51.9720077 C13.3413791,52.1185881 13.3189128,52.1395282 13.3189128,52.1395282 C13.3189128,52.1395282 9.87408655,52.1020025 9.65851288,52.1644385 C9.44293921,52.2268745 9.48281522,52.5140799 9.48281522,52.5140799 L9.37848473,55.2563955 C9.37848473,55.2563955 8.61834432,55.8172305 7.34077591,56.0677428 C6.06320749,56.3182551 5.16116482,55.0414877 5.16116482,55.0414877 L5.47134,41.8397715 C5.47134,41.8397715 5.61428041,41.5661806 5.57739866,41.4778991 C5.5405169,41.3896175 5.56353249,41.2016408 5.3201568,41.1581629 C4.50394676,41.0123509 4.70255872,40.3723663 4.70255872,40.3723663 L4.75811631,39.6082782 C4.75811631,39.6082782 4.67106756,38.9548458 5.10963964,38.7340466 C5.54821173,38.5132474 5.57739866,37.771188 5.57739866,37.771188 C5.57739866,37.771188 6.30835213,20.0739544 6.4880822,17.0521818 C6.66781226,14.0304093 4.94655125,13.3239544 4.94655125,13.3239544 C4.94655125,13.3239544 -0.190861145,12.2983396 0.0899990863,6.31934373 Z" id="Combined-Shape"></path>
                </g>
                <g id="Key3" transform="translate(28.542403, 26.278600) rotate(130.000000) translate(-28.542403, -26.278600) translate(19.003941, -1.721400)">
                    <path d="M8.58607904,4.86873591 C8.54753503,4.84586238 8.50809396,4.8245968 8.46777046,4.80503508 C6.99476846,4.09045277 5.94849338,3.73935176 4.56212311,4.19806178 C3.17575284,4.6567718 2.62170352,6.95583746 2.62170352,6.95583746 C2.62170352,6.95583746 2.83578136,8.09431816 3.33129618,8.78358612 C3.82681101,9.47285409 4.66339034,9.84260358 5.38538711,9.92793171 C6.87900548,10.1044528 7.04241855,9.69133698 8.58607904,9.1151039 C10.1297395,9.69133698 10.2931526,10.1044528 11.786771,9.92793171 C12.5087677,9.84260358 13.3453471,9.47285409 13.8408619,8.78358612 C14.3363767,8.09431816 14.5504546,6.95583746 14.5504546,6.95583746 C14.5504546,6.95583746 13.9964052,4.6567718 12.610035,4.19806178 C11.2236647,3.73935176 10.1773896,4.09045277 8.70438762,4.80503508 C8.66406412,4.8245968 8.62462305,4.84586238 8.58607904,4.86873591 Z M0.0111100579,6.21460465 C0.291970289,0.235608744 8.09128225,0.0641179655 8.54636799,0.00385925651 C9.00145373,-0.0563994525 11.6934363,0.608943785 11.6934363,0.608943785 C11.6934363,0.608943785 16.3526566,1.52640024 17.0137151,5.83960465 C17.6747735,10.1528091 13.5231242,12.7074966 13.5231242,12.7074966 C13.5231242,12.7074966 11.4534762,13.2192153 10.6185763,14.0250555 C9.78367636,14.8308956 9.68862681,15.920035 9.68862681,15.920035 C9.68862681,15.920035 9.43138495,36.0748121 9.57962385,37.6664489 C9.72786275,39.2580857 10.1607448,38.1668144 10.4299124,39.3271004 C10.4799736,39.5428965 10.4152006,39.2156701 10.4299124,39.9466573 C10.4446242,40.6776445 10.2861539,41.1672643 10.2861539,41.1672643 C10.2861539,41.1672643 10.0673799,41.29854 9.78875993,41.2756148 C9.51013992,41.2526895 9.45807563,41.5826716 9.45807563,41.5826716 C9.45807563,41.5826716 9.40392619,42.1793844 9.45807563,42.4884904 C9.51222507,42.7975964 9.71480544,42.8810365 9.71480544,42.8810365 C9.71480544,42.8810365 13.0988896,43.0284494 13.5457825,42.9468024 C13.9926754,42.8651554 13.9842906,43.2034622 13.9842906,43.2034622 L13.9409582,44.164912 L16.1051438,44.164912 C16.1051438,44.164912 16.087926,43.5721226 16.1107763,43.2410519 C16.1336266,42.9099812 16.4004695,42.966974 16.4004695,42.966974 C16.4004695,42.966974 17.8896431,43.0065488 18.0621405,43.0284494 C18.2346378,43.05035 18.3387763,43.2587901 18.3387763,43.2587901 C18.3387763,43.2587901 18.3043408,45.6469177 18.246543,45.8250042 C18.1887452,46.0030908 18.0698213,45.9138874 18.0698213,45.9138874 C18.0698213,45.9138874 17.9522414,45.9549991 17.5529693,45.9343792 C17.1536972,45.9137594 17.2599478,46.1971866 17.2599478,46.1971866 C17.2599478,46.1971866 17.2557234,47.5887722 17.172387,47.9395022 C17.0890507,48.2902322 17.4529913,48.2123634 17.4529913,48.2123634 C17.4529913,48.2123634 17.5568097,48.2115309 17.8896431,48.2964438 C18.2224766,48.3813567 18.3043408,48.657868 18.3043408,48.657868 C18.3043408,48.657868 18.2585122,50.7888874 18.1573821,51.4432163 C18.0562519,52.0975452 17.7567658,52.0415129 17.7567658,52.0415129 C17.7567658,52.0415129 16.3845319,52.0596994 16.2046738,52.0144894 C16.0248157,51.9692793 15.9471119,51.6784238 15.9471119,51.6784238 C15.9471119,51.6784238 15.8251796,51.2502732 15.8948826,50.81764 C15.9645856,50.3850068 15.5786268,50.2631446 15.5786268,50.2631446 C15.5786268,50.2631446 13.8057766,50.2870944 13.7215442,50.2589822 C13.6373117,50.23087 13.6507531,50.5269125 13.6507531,50.5269125 L13.5932753,51.5408726 C13.5932753,51.5408726 13.5932753,51.7206881 13.4278827,51.8672686 C13.26249,52.013849 13.2400238,52.0347891 13.2400238,52.0347891 C13.2400238,52.0347891 9.79519752,51.9972635 9.57962385,52.0596994 C9.36405018,52.1221354 9.40392619,52.4093408 9.40392619,52.4093408 L9.2995957,55.1516564 C9.2995957,55.1516564 8.5394553,55.7124914 7.26188688,55.9630037 C5.98431846,56.213516 5.08227579,54.9367486 5.08227579,54.9367486 L5.39245097,41.7350324 C5.39245097,41.7350324 5.53539139,41.4614416 5.49850963,41.37316 C5.46162788,41.2848784 5.48464346,41.0969017 5.24126777,41.0534238 C4.42505773,40.9076118 4.6236697,40.2676272 4.6236697,40.2676272 L4.67922728,39.5035391 C4.67922728,39.5035391 4.59217853,38.8501067 5.03075061,38.6293075 C5.4693227,38.4085083 5.49850963,37.6664489 5.49850963,37.6664489 C5.49850963,37.6664489 6.2294631,19.9692153 6.40919317,16.9474428 C6.58892323,13.9256702 4.86766222,13.2192153 4.86766222,13.2192153 C4.86766222,13.2192153 -0.269750173,12.1936005 0.0111100579,6.21460465 Z" id="Combined-Shape"></path>
                </g>
            </g>
        </g>
    </g>
</svg>